#!OML:ASF Y:\EmotionMaleHayes\Project 1\Capture day 1\Session 1\Male1.ASF
:FULLY-SPECIFIED
:DEGREES
1265
root 35.3048 16.6773 0.441925 517.52 94.7234 520.63
lowerback -0.194374 1.78497 -1.75302
upperback 1.5803 2.41001 -0.0103466
thorax 1.6564 1.18381 1.00857
lowerneck -24.341 0.790257 4.48035
upperneck 34.8537 -0.69551 1.60654
head 16.7215 0.857331 -0.126679
rclavicle -3.02836e-016 7.95139e-016
rhumerus 31.4171 22.296 -50.6992
rradius 40.6792
rwrist 0.0911474
rhand -4.01526 -26.3756
rfingers 7.12502
rthumb 21.7393 -55.1749
lclavicle -3.02836e-016 7.95139e-016
lhumerus 35.2627 -20.2509 38.5239
lradius 42.1831
lwrist 0.112314
lhand -0.799597 -27.2569
lfingers 7.12502
lthumb 24.8243 1.15166
rfemur 28.2833 5.67804 12.8627
rtibia 11.5737
rfoot -5.43559 4.26125
rtoes 7.26177
lfemur -13.2998 -1.99135 -10.5354
ltibia 18.5942
lfoot -3.06384 7.59426
ltoes -8.03348
1266
root 35.3738 16.6884 0.379469 520.644 95.1577 523.949
lowerback 0.383645 1.96061 -1.8421
upperback 1.8345 2.64354 -0.20698
thorax 1.59161 1.30224 0.843912
lowerneck -24.4533 0.671974 4.3646
upperneck 35.0049 -0.91959 1.84316
head 16.8264 0.793677 -0.045603
rclavicle -2.31211e-014 6.75868e-015
rhumerus 30.9694 22.0659 -51.3891
rradius 40.6448
rwrist -0.221443
rhand -4.69709 -26.4413
rfingers 7.12502
rthumb 21.0844 -55.3149
lclavicle -2.31211e-014 6.75868e-015
lhumerus 35.1252 -20.2514 38.9714
lradius 42.1569
lwrist 0.343856
lhand -1.9885 -27.2405
lfingers 7.12502
lthumb 23.6844 1.32036
rfemur 28.3003 5.82328 12.0786
rtibia 11.7855
rfoot -4.1696 4.87506
rtoes 9.57309
lfemur -12.8237 -1.56824 -10.8905
ltibia 18.8681
lfoot -3.52687 7.39945
ltoes -8.6225
1267
root 35.4382 16.7096 0.325907 520.893 95.8834 524.433
lowerback 1.04076 2.18956 -1.65888
upperback 2.12438 2.94629 -0.353794
thorax 1.5294 1.45965 0.573321
lowerneck -24.5917 0.548018 4.27501
upperneck 35.1225 -1.14415 2.01536
head 16.9208 0.721482 0.00154706
rclavicle -3.47376e-014 2.38542e-015
rhumerus 30.4937 21.7678 -52.1915
rradius 40.5921
rwrist -0.439805
rhand -5.20944 -26.4703
rfingers 7.12502
rthumb 20.5922 -55.3981
lclavicle -3.47376e-014 2.38542e-015
lhumerus 34.838 -20.0548 39.545
lradius 42.1936
lwrist 0.123919
lhand -3.11354 -27.4012
lfingers 7.12502
lthumb 22.605 1.29523
rfemur 28.1896 6.31391 11.9155
rtibia 12.1283
rfoot -3.11604 5.24921
rtoes 10.566
lfemur -12.1374 -1.13951 -10.7315
ltibia 18.8702
lfoot -3.92782 7.38588
ltoes -8.37294
1268
root 35.4985 16.7378 0.275175 524.607 96.6356 528.35
lowerback 1.69103 2.44844 -1.90563
upperback 2.36331 3.28997 -0.608024
thorax 1.40502 1.63349 0.426693
lowerneck -24.7988 0.635116 4.72739
upperneck 35.476 -1.06073 1.60432
head 17.1503 0.769756 -0.237194
rclavicle -9.44227e-015 8.74653e-015
rhumerus 30.1186 21.7149 -52.8258
rradius 40.4958
rwrist -0.839806
rhand -5.65227 -26.4055
rfingers 7.12502
rthumb 20.1666 -55.3788
lclavicle -9.44227e-015 8.74653e-015
lhumerus 34.5517 -20.0697 39.809
lradius 42.1526
lwrist 0.263021
lhand -4.19651 -27.5661
lfingers 7.12502
lthumb 21.5652 1.25317
rfemur 27.982 6.91999 11.3022
rtibia 12.4352
rfoot -2.01247 5.63658
rtoes 11.0467
lfemur -11.358 -0.750125 -11.0223
ltibia 18.6362
lfoot -4.21948 7.5756
ltoes -8.1532
1269
root 35.5616 16.7658 0.217272 530.728 97.2559 534.589
lowerback 2.22174 2.67945 -2.50872
upperback 2.56326 3.59445 -0.986223
thorax 1.29632 1.78407 0.351355
lowerneck -24.5919 0.857879 5.2238
upperneck 35.6733 -0.702992 1.08675
head 17.2047 0.913236 -0.477314
rclavicle -1.11568e-014 -5.56597e-015
rhumerus 29.8978 21.8806 -53.2031
rradius 40.3412
rwrist -1.30495
rhand -5.95654 -26.4153
rfingers 7.12502
rthumb 19.8741 -55.4192
lclavicle -1.11568e-014 -5.56597e-015
lhumerus 34.3306 -20.2598 39.8629
lradius 42.0319
lwrist 0.709357
lhand -5.02811 -27.6874
lfingers 7.12502
lthumb 20.7664 1.22136
rfemur 27.6556 7.24509 9.96961
rtibia 12.7352
rfoot -0.717057 6.27161
rtoes 11.949
lfemur -10.6133 -0.46328 -11.982
ltibia 18.2804
lfoot -4.46122 7.83675
ltoes -8.31921
1270
root 35.6274 16.7928 0.156705 532.442 97.964 536.375
lowerback 2.63078 2.87837 -2.54129
upperback 2.8269 3.86461 -1.2698
thorax 1.35057 1.92405 0.0618649
lowerneck -24.4036 0.915709 5.29019
upperneck 35.5625 -0.661476 1.17688
head 17.1036 0.947916 -0.441041
rclavicle 2.87741e-014 1.11319e-014
rhumerus 29.9767 22.1872 -53.3058
rradius 40.0976
rwrist -1.77236
rhand -5.96978 -26.7525
rfingers 7.12502
rthumb 19.8614 -55.7576
lclavicle 2.87741e-014 1.11319e-014
lhumerus 34.1198 -20.3924 39.8156
lradius 41.9721
lwrist 1.10515
lhand -5.64599 -27.7204
lfingers 7.12502
lthumb 20.1726 1.25217
rfemur 27.2503 7.46185 9.23477
rtibia 13.12
rfoot 0.629928 6.80924
rtoes 13.4136
lfemur -9.89252 -0.232298 -12.4052
ltibia 17.9228
lfoot -4.76852 8.14794
ltoes -8.34052
1271
root 35.6872 16.8239 0.100798 532.677 98.7612 536.584
lowerback 2.95887 3.06189 -2.47586
upperback 3.08007 4.11677 -1.46709
thorax 1.44278 2.05561 -0.190823
lowerneck -24.1447 0.98904 5.27824
upperneck 35.3899 -0.583762 1.3378
head 16.9551 0.994135 -0.353338
rclavicle -1.70955e-014 7.95139e-015
rhumerus 30.2672 22.5528 -53.3667
rradius 39.7294
rwrist -1.97202
rhand -5.77347 -27.0389
rfingers 7.12502
rthumb 20.0501 -56.0244
lclavicle -1.70955e-014 7.95139e-015
lhumerus 33.8807 -20.4897 39.6939
lradius 41.8883
lwrist 1.44532
lhand -6.0411 -27.6737
lfingers 7.12502
lthumb 19.7928 1.33848
rfemur 26.7055 7.78864 8.88147
rtibia 13.5586
rfoot 1.94415 7.16543
rtoes 15.1258
lfemur -9.33096 0.0741402 -12.5073
ltibia 17.6608
lfoot -5.07596 8.4234
ltoes -9.33206
1272
root 35.7383 16.8565 0.046406 535.312 99.8828 539.055
lowerback 3.19724 3.38608 -2.8714
upperback 3.26709 4.5512 -1.7421
thorax 1.49036 2.27164 -0.2706
lowerneck -24.1773 1.06615 5.60682
upperneck 35.6239 -0.415406 0.860768
head 17.085 1.04362 -0.58619
rclavicle 6.11263e-015 -2.38542e-014
rhumerus 30.5016 22.7608 -53.5259
rradius 39.3587
rwrist -1.71536
rhand -5.4695 -27.064
rfingers 7.12502
rthumb 20.3423 -56.0186
lclavicle 6.11263e-015 -2.38542e-014
lhumerus 33.7562 -20.597 39.5838
lradius 41.724
lwrist 1.65845
lhand -6.08097 -27.3714
lfingers 7.12502
lthumb 19.7545 1.64479
rfemur 25.7381 8.32124 7.99732
rtibia 14.1388
rfoot 3.31586 7.72872
rtoes 16.5944
lfemur -8.91089 0.630257 -12.98
ltibia 17.3774
lfoot -5.23531 8.87187
ltoes -11.0872
1273
root 35.7963 16.891 -0.00811827 537.435 100.881 541.085
lowerback 3.37347 3.69058 -3.26064
upperback 3.52653 4.96656 -2.0008
thorax 1.64626 2.47695 -0.331885
lowerneck -24.0222 1.25703 5.84222
upperneck 35.64 -0.105564 0.609767
head 17.0646 1.1634 -0.674374
rclavicle -9.14409e-015 4.77083e-015
rhumerus 30.7269 22.9431 -53.4823
rradius 39.1049
rwrist -1.23393
rhand -4.94553 -27.0896
rfingers 7.12502
rthumb 20.8458 -55.9897
lclavicle -9.14409e-015 4.77083e-015
lhumerus 33.7967 -20.6414 39.5093
lradius 41.4284
lwrist 1.5014
lhand -5.70435 -27.1219
lfingers 7.12502
lthumb 20.1165 1.85665
rfemur 24.9185 8.83546 7.15374
rtibia 14.6198
rfoot 4.65419 8.0859
rtoes 18.153
lfemur -8.38909 1.02306 -13.4894
ltibia 16.9998
lfoot -5.42689 9.34349
ltoes -11.6983
1274
root 35.8469 16.9212 -0.0594626 537.852 101.587 541.306
lowerback 3.59782 3.84761 -3.45622
upperback 3.69279 5.17669 -2.13785
thorax 1.68661 2.58178 -0.379124
lowerneck -24.239 1.34217 5.98708
upperneck 36.0424 0.0545416 0.368279
head 17.3358 1.22774 -0.770325
rclavicle -2.68359e-014 1.59028e-015
rhumerus 31.0019 23.3611 -53.2936
rradius 38.8966
rwrist -0.607437
rhand -4.35572 -27.12
rfingers 7.12502
rthumb 21.4123 -55.9568
lclavicle -2.68359e-014 1.59028e-015
lhumerus 33.6483 -20.6 39.4734
lradius 41.0826
lwrist 0.911618
lhand -4.8157 -27.1751
lfingers 7.12502
lthumb 20.9705 1.71127
rfemur 24.1579 9.09186 6.71219
rtibia 15.0011
rfoot 5.79858 8.19342
rtoes 19.9594
lfemur -8.11611 1.35029 -13.6428
ltibia 16.7474
lfoot -5.74204 9.57604
ltoes -11.2737
1275
root 35.8929 16.9492 -0.110077 537.888 102.199 540.991
lowerback 3.75883 3.93159 -3.59191
upperback 3.7681 5.28653 -2.26962
thorax 1.67438 2.63741 -0.451135
lowerneck -24.3608 1.46502 5.99885
upperneck 36.5011 0.244513 0.393688
head 17.6216 1.33011 -0.714476
rclavicle 2.82274e-014 -1.27222e-014
rhumerus 31.2025 23.8073 -53.2816
rradius 38.7545
rwrist 0.187988
rhand -3.93084 -27.0365
rfingers 7.12502
rthumb 21.8204 -55.8264
lclavicle 2.82274e-014 -1.27222e-014
lhumerus 33.3832 -20.61 39.2533
lradius 40.8444
lwrist 0.275141
lhand -3.53459 -27.0544
lfingers 7.12502
lthumb 22.2008 1.69065
rfemur 23.2887 9.17091 6.32992
rtibia 15.3572
rfoot 6.787 8.32415
rtoes 21.5002
lfemur -8.07864 1.61629 -13.6951
ltibia 16.5283
lfoot -5.96356 9.85133
ltoes -11.1181
1276
root 35.9369 16.9782 -0.154829 536.287 102.718 538.874
lowerback 3.73397 4.02537 -3.32756
upperback 3.85919 5.42476 -2.30137
thorax 1.80675 2.71156 -0.625965
lowerneck -24.3518 1.49242 5.756
upperneck 36.8786 0.328564 0.643102
head 17.8288 1.38501 -0.533957
rclavicle 1.80894e-014 -6.36111e-015
rhumerus 31.3527 24.155 -53.0818
rradius 38.7651
rwrist 0.819629
rhand -3.71589 -26.8522
rfingers 7.12502
rthumb 22.0268 -55.6179
lclavicle 1.80894e-014 -6.36111e-015
lhumerus 33.4697 -20.7693 38.8505
lradius 40.5527
lwrist -0.221844
lhand -2.19861 -26.7368
lfingers 7.12502
lthumb 23.4829 1.84998
rfemur 22.336 9.32484 6.60251
rtibia 15.757
rfoot 7.72438 8.15591
rtoes 22.7937
lfemur -8.2266 1.85995 -13.2405
ltibia 16.3092
lfoot -6.0938 10.1275
ltoes -10.9735
1277
root 35.9819 17.0057 -0.193754 533.137 103.21 535.187
lowerback 3.69477 4.12459 -2.74078
upperback 3.94281 5.57049 -2.16611
thorax 1.95303 2.79352 -0.805786
lowerneck -24.6463 1.29189 5.51062
upperneck 37.4577 0.129529 0.665482
head 18.2179 1.29839 -0.515752
rclavicle -6.0033e-014 2.62396e-014
rhumerus 31.5189 24.566 -52.6057
rradius 38.8355
rwrist 1.28545
rhand -3.67604 -26.5955
rfingers 7.12502
rthumb 22.065 -55.3567
lclavicle -6.0033e-014 2.62396e-014
lhumerus 33.5734 -20.9591 38.6021
lradius 40.1935
lwrist -0.829839
lhand -0.944612 -26.5188
lfingers 7.12502
lthumb 24.6853 1.9089
rfemur 21.5032 9.64978 7.53598
rtibia 16.1034
rfoot 8.67287 7.55198
rtoes 24.1094
lfemur -8.35291 2.10229 -12.2643
ltibia 16.0449
lfoot -6.21189 10.3922
ltoes -10.5732
1278
root 36.025 17.0269 -0.230566 530.368 103.63 532.02
lowerback 3.85613 4.15094 -2.37039
upperback 4.03153 5.60602 -1.99406
thorax 1.97132 2.8171 -0.842915
lowerneck -24.0868 1.5848 5.58092
upperneck 37.2724 0.547669 0.822636
head 17.9866 1.49342 -0.367105
rclavicle 7.15625e-015 9.54166e-015
rhumerus 31.7852 25.0155 -52.2263
rradius 38.8378
rwrist 1.74679
rhand -3.77673 -26.2689
rfingers 7.12502
rthumb 21.9683 -55.0414
lclavicle 7.15625e-015 9.54166e-015
lhumerus 33.4636 -21.0033 38.4623
lradius 39.8917
lwrist -1.55278
lhand 0.447107 -26.3648
lfingers 7.12502
lthumb 26.0186 1.87372
rfemur 20.9148 9.9251 8.37207
rtibia 16.3032
rfoot 9.51057 6.99578
rtoes 24.1273
lfemur -8.42692 2.28749 -11.3841
ltibia 15.8857
lfoot -6.36127 10.5859
ltoes -10.2292
1279
root 36.0646 17.0462 -0.2647 528.663 103.929 529.906
lowerback 4.09464 4.12357 -2.32251
upperback 4.06672 5.5601 -1.88977
thorax 1.86872 2.79448 -0.779432
lowerneck -24.2268 1.60115 5.94609
upperneck 37.7201 0.673826 0.215484
head 18.2821 1.5215 -0.680077
rclavicle 1.74931e-014 -9.54166e-015
rhumerus 31.9324 25.4489 -52.0245
rradius 38.9403
rwrist 2.13465
rhand -3.91623 -25.9003
rfingers 7.12502
rthumb 21.8344 -54.6885
lclavicle 1.74931e-014 -9.54166e-015
lhumerus 33.3829 -21.0521 38.1976
lradius 39.5645
lwrist -2.20866
lhand 1.75474 -26.3056
lfingers 7.12502
lthumb 27.27 1.74267
rfemur 20.3421 10.1703 8.93183
rtibia 16.4392
rfoot 10.0655 6.66268
rtoes 23.1843
lfemur -8.63692 2.35528 -10.8216
ltibia 15.8777
lfoot -6.58067 10.6985
ltoes -9.37359
